<?xml version="1.0" encoding="UTF-8"?>
<!DOCTYPE svg PUBLIC "-//W3C//DTD SVG 1.1//EN" "http://www.w3.org/Graphics/SVG/1.1/DTD/svg11.dtd">
<!-- Creator: CorelDRAW 2019 (64-Bit) -->
<svg xmlns="http://www.w3.org/2000/svg" xml:space="preserve" width="42.3332mm" height="12.7mm" version="1.1" style="shape-rendering:geometricPrecision; text-rendering:geometricPrecision; image-rendering:optimizeQuality; fill-rule:evenodd; clip-rule:evenodd"
viewBox="0 0 4233.32 1270"
 xmlns:xlink="http://www.w3.org/1999/xlink"
 xmlns:xodm="http://www.corel.com/coreldraw/odm/2003">
 <defs>
  <style type="text/css">
   <![CDATA[
    .fil0 {fill:#373435;fill-rule:nonzero}
   ]]>
  </style>
 </defs>
 <g id="Capa_x0020_1">
  <metadata id="CorelCorpID_0Corel-Layer"/>
  <path class="fil0" d="M1308.03 712.99c-34.54,0 -52.39,-13.97 -54.33,-41.91l-52.39 0c1.55,57.44 36.87,86.54 106.72,86.54 66.75,0 101.67,-25.61 104.78,-77.22 1.55,-33.38 -12.42,-55.11 -41.92,-65.2 -22.11,-7.76 -43.07,-13.58 -62.86,-18.24 -34.54,-7.76 -51.22,-19.79 -51.22,-36.47 1.16,-20.18 15.13,-30.66 43.07,-31.05 22.9,0 38.81,7.37 47.73,22.51 5.05,10.09 12.81,15.52 24.06,15.52l30.27 0c-3.1,-54.72 -35.31,-81.88 -97.4,-81.88 -65.2,-0.39 -98.18,26.78 -99.35,82.27 0,34.92 25.62,58.98 77.23,72.18 19.01,5.04 36.86,9.7 52.39,14.36 16.29,4.65 24.06,13.19 24.06,26 0.38,21.73 -16.3,32.59 -50.84,32.59l0 0zm222.74 -167.64c-62.09,0 -93.13,35.32 -93.13,106.72 0,70.63 31.04,106.33 93.13,106.33 62.09,0 93.53,-35.7 93.53,-106.33 0,-71.4 -31.44,-106.72 -93.53,-106.72zm0 45.4c26.39,0 39.59,19.8 39.59,59.77 -0.39,40.74 -13.59,61.7 -39.97,61.7 -26.39,0 -39.97,-20.18 -40.36,-60.15 0,-40.75 13.58,-61.32 40.74,-61.32zm145.14 -100.89l-26.78 0 0 263.88 51.61 0 0 -238.66c0,-13.58 -11.25,-25.22 -24.83,-25.22zm126.12 225.85c-16.3,0 -24.83,-7.76 -26,-24.06 0,-15.13 10.48,-24.84 31.05,-28.72 15.13,-3.1 29.1,-7.37 41.13,-12.41l0 19.01c0,29.11 -17.46,46.18 -46.18,46.18zm12.03 -128.06c21.34,0 32.21,5.82 33.37,17.46 0,11.26 -11.25,17.85 -33.37,20.57 -52,5.04 -87.7,18.24 -88.86,67.52 0,45.41 34.14,68.3 83.43,64.42 55.49,-3.88 89.64,-29.1 89.64,-85.76l0 -69.85c-1.16,-38.03 -29.88,-56.66 -86.54,-56.66 -47.34,0 -74.12,18.63 -80.33,56.66l51.62 0c2.71,-9.7 12.8,-14.36 31.04,-14.36zm109.04 166.09l52.39 0 0 -106.72c0,-29.88 14.36,-45.01 43.07,-45.01l17.47 0 0 -53.55 -7.38 0c-68.68,0 -104,32.98 -105.55,99.34l0 105.94zm240.22 -263.88l-76.06 0c-18.24,0.39 -27.17,10.09 -27.17,28.33l0 235.55 88.87 0c24.06,0 42.68,-1.94 55.88,-5.43 50.83,-13.58 78.77,-61.7 78.77,-126.51 0,-84.21 -36.47,-131.94 -120.29,-131.94zm65.19 131.94c0,55.49 -18.63,84.21 -72.18,84.21l-43.07 0 0 -169.97 50.06 0c48.89,0 65.19,32.98 65.19,85.76zm296.09 51.61c0,-34.92 -15.13,-52 -41.13,-62.09 20.56,-10.09 31.82,-26.77 31.82,-54.71 0,-46.96 -32.99,-66.75 -82.66,-66.75l-97.01 0c-15.14,0 -27.17,13.19 -27.17,28.33l0 235.55 119.91 0c57.05,0 96.24,-25.61 96.24,-80.33zm-63.64 -109.82c0,22.12 -17.46,28.72 -38.81,28.72l-60.53 0 0 -56.66 59.76 0c24.45,0 39.58,5.82 39.58,27.94zm6.6 108.27c0,26.39 -16.3,34.15 -43.08,34.15l-62.86 0 0 -69.08 62.09 0c27.94,0 43.85,7.77 43.85,34.93zm248.07 15.28l-38.1 0c-4.23,21.16 -18.34,34.71 -42.89,34.71 -35.84,0 -51.37,-26.53 -51.37,-64.06 0,-38.67 16.09,-64.35 52.5,-64.35 18.62,0 31.32,7.05 37.81,20.88 3.67,7.62 9.88,11.57 18.35,11.57l23.7 0c-1.97,-20.88 -9.59,-37.53 -23.14,-49.67 -14.39,-11.85 -33.3,-17.49 -56.72,-17.49 -60.68,0 -91.73,37.25 -91.73,99.06 0,59.83 29.36,98.77 88.34,98.77 48.54,0 79.59,-25.12 83.25,-69.42zm85.52 -84.95c-45.15,0 -67.73,25.68 -67.73,77.61 0,51.36 22.58,77.33 67.73,77.33 45.16,0 68.02,-25.97 68.02,-77.33 0,-51.93 -22.86,-77.61 -68.02,-77.61zm0 33.02c19.19,0 28.79,14.39 28.79,43.46 -0.28,29.63 -9.88,44.87 -29.07,44.87 -19.19,0 -29.07,-14.67 -29.35,-43.74 0,-29.63 9.88,-44.59 29.63,-44.59zm86.08 118.53l38.1 0 0 -77.61c0,-21.73 10.44,-32.74 31.32,-32.74l12.7 0 0 -38.94 -5.36 0c-49.95,0 -75.63,23.98 -76.76,72.24l0 77.05zm231.41 -45.72l-27.65 0c-5.08,0 -9.32,1.69 -12.7,5.36 -7.34,7.06 -15.53,10.73 -24.27,10.73 -18.35,0 -28.23,-11.57 -29.64,-34.43l96.52 0c2.82,-58.42 -19.47,-87.49 -66.88,-87.49 -45.44,0.28 -68.3,25.68 -68.3,76.48 0,50.8 22.58,77.05 67.73,78.46 36.69,0 57.01,-17.5 65.19,-49.11zm-65.19 -75.07c16.09,0 25.4,10.16 27.66,29.92l-56.16 0c2.82,-19.76 12.42,-29.92 28.5,-29.92z"/>
 </g>
</svg>
